<svg height="400" viewBox="0 0 400 400" width="400" xmlns="http://www.w3.org/2000/svg"><g fill="none" fill-rule="evenodd"><circle cx="200" cy="200" fill="#00112c" r="200"/><g transform="translate(40 95)"><path d="m250.467475 132.270056.015457.129977.014616.191049c.003741.12753.003741.255308.000261.38285l-.014162.191076-7.60169 75.4967-.016921.142306c-.188575 1.366982-1.102945 2.525876-2.388229 3.027417l-.227279.084607-77.409993 31.916739c-.82097.101871-1.659572.01584-2.450762-.258093l-82.3636245-28.516673c-2.0047752-.694111-3.4234435-2.48997-3.6346124-4.60097l-5.7916763-57.897886c-.298786-2.986886 1.8773369-5.651674 4.8636782-5.955855l172.935632-17.614699c2.037327-.136831 3.799657 1.300136 4.069305 3.281455zm.932395-132.270056c6.011263 0 10.884354 4.87368029 10.884354 10.8849429 0 .2847168-.011172.569324-.033489.8531647l-2.923459 37.1816256c-.206142 2.6217913-2.257609 4.7210841-4.873954 4.9875807l-12.351999 1.2579011-174.9763919 13.4250804c-2.5619076.2606966-4.8321796-1.5898371-5.0910664-4.1314728l-4.8304916-57.07873167c-.2358817-2.78764987 0-7.14724078 4.7937954-7.38009093z" fill="#0063dc"/><path d="m257.549358 133.326497c.037006.363317.037349.729436.001022 1.092821l-7.60169 76.040918c-.211048 2.111144-1.629761 3.907171-3.634662 4.601319l-58.667769 20.31205 53.225592-21.944703c1.953494-.676349 3.350474-2.398796 3.616056-4.439558l.018606-.161761 7.60169-75.496701c.036327-.363385.035984-.729504-.001022-1.09282-.150218-1.474782-.876065-2.751782-1.931939-3.630802l1.408479-.143453c2.99016-.30457 5.661067 1.87253 5.965637 4.86269zm-200.4709828-133.09364685c-1.3378773 2.0906334-2.0233845 4.62124353-1.7979948 7.28489854l4.8231519 57.00000611.0092528.0995675c.3509358 3.4456272 3.4224804 5.9492904 6.861164 5.5990319l109.6943499-8.4165814-117.3961191 11.9581984c-2.9901597.3045727-5.661068-1.8725258-5.9656406-4.8626855l-.0086349-.0926183-4.8231519-57.0000061c-.4687097-5.53921021 3.2972298-10.45991091 8.6036227-11.56981115z" fill="#18355c"/><path d="m292.315982 55.3203058-20.950956-13.945191 48.22987-4.9125298-19.984288 31.1154302 16.674066 32.0473592-22.964624 2.3392996-2.282291-22.2544385-2.031999 38.7728595-261.6494507 26.406246 20.0614435 15.142602-47.4177528 4.829888 19.98356-31.115469-16.67333847-32.047321 23.08458667-2.3169979 1.4717331 35.3816289 2.7794996-53.0360103z" fill="#a1213b"/><path d="m162.268787 166.584332.053697.122304.049531.126382.045216.130428 3.646571 11.223304.042617.122796.047375.120122c.430197 1.027676 1.380563 1.744596 2.479735 1.883544l.132591.013883.128898.008028.129962.002697h11.802418l.122967.002158.124453.006663c2.714227.195436 3.854188 3.590387 1.866356 5.39226l-.092515.08079-.095421.077374-.096861.073012-9.547238 6.936889-.107082.081235-.102795.085153c-.837278.724319-1.223933 1.838529-1.02162 2.919786l.028367.134955.033117.129269.038899.12862 3.647655 11.2271.033746.110076.030404.112528c.66885 2.655709-2.231589 4.806018-4.567372 3.447199l-.099747-.060393-.096301-.062921-.093056-.065302-9.548322-6.937974-.114202-.079235-.121481-.076401c-.941411-.562277-2.107897-.58484-3.067372-.06769l-.12394.070515-.11676.073576-.114202.079235-9.548322 6.937974-.094311.066124-.097674.063702c-2.320173 1.457091-5.260723-.636755-4.690362-3.277812l.026605-.113514.030076-.111019.03334-.108668 3.649282-11.2271.038689-.12862.032921-.129269c.250067-1.077776-.093148-2.206125-.891924-2.962201l-.10221-.09254-.102698-.085153-.106977-.081235-9.548322-6.936889-.098178-.07402-.096735-.078538c-2.080315-1.753423-1.009953-5.170977 1.657557-5.459632l.122345-.010949.122693-.006477.121297-.002099h11.80296l.130152-.002697.129049-.008028c1.111634-.092283 2.085242-.773226 2.555834-1.775615l.054033-.121812.047337-.120122.042604-.122796 3.648739-11.223846.044537-.128452.049513-.126445c1.032392-2.488113 4.56516-2.529519 5.679862-.124217zm-55.065383-7.420904.048879.107183.044705.111305.040375.115428 2.836222 8.729236.038374.109482.045138.111112c.334024.767029 1.043108 1.305273 1.865737 1.426554l.118262.01447.119638.008674.115989.002762h9.179658l.112426.002324.110248.006891c2.073116.173555 2.946531 2.756498 1.456618 4.159071l-.082084.073988-.085113.070393-.089556.067978-7.425629 5.395358-.095804.073177-.095403.08081c-.619656.552925-.910411 1.384736-.775093 2.198435l.023505.121882.028531.116123.034508.115476 2.837066 8.732189.031108.102674.026937.103746c.48394 2.033867-1.718115 3.672791-3.517352 2.672443l-.091124-.05315-.08889-.056797-.088044-.061326-7.426472-5.396202-.103225-.071079-.110741-.067978c-.707989-.408885-1.573205-.430405-2.297745-.06456l-.119402.06456-.110741.067978-.103225.071079-7.426472 5.396202-.0880819.061326-.0903892.05769c-1.7856277 1.088996-4.0242118-.498706-3.6289279-2.518777l.0223842-.103077.0265412-.102078.031109-.102674 2.8383304-8.732189.0343215-.115476.0295066-.121413c.1751469-.811288-.0793776-1.654891-.666841-2.233813l-.0906044-.084816-.0912714-.077208-.0957107-.073177-7.4264724-5.395358-.0895561-.067957-.0865416-.071608c-1.5727783-1.359258-.7632184-3.961509 1.2660902-4.219865l.1098732-.011578.1102471-.006892.1124263-.002323h9.1800798l.1161561-.002762.1197703-.008675c.8336347-.081144 1.5632754-.588211 1.9318912-1.333024l.0501756-.107999.0450973-.111112.038361-.109482 2.8379086-8.729658.040418-.115428.044748-.111305c.812239-1.893561 3.504652-1.929289 4.387152-.107183zm108.843537 0 .048879.107183.044706.111305.040374.115428 2.836222 8.729236.038374.109482.045138.111112c.334024.767029 1.043109 1.305273 1.865737 1.426554l.118263.01447.119637.008674.115989.002762h9.179658l.112427.002324.110247.006891c2.073117.173555 2.946532 2.756498 1.456619 4.159071l-.082084.073988-.085113.070393-.089556.067978-7.425629 5.395358-.095805.073177-.095403.08081c-.619655.552925-.91041 1.384736-.775093 2.198435l.023505.121882.028531.116123.034509.115476 2.837065 8.732189.031108.102674.026937.103746c.48394 2.033867-1.718114 3.672791-3.517352 2.672443l-.091124-.05315-.08889-.056797-.088044-.061326-7.426472-5.396202-.103225-.071079-.11074-.067978c-.707989-.408885-1.573206-.430405-2.297745-.06456l-.119403.06456-.110741.067978-.103224.071079-7.426473 5.396202-.088081.061326-.09039.05769c-1.785627 1.088996-4.024211-.498706-3.628928-2.518777l.022385-.103077.026541-.102078.031109-.102674 2.83833-8.732189.034322-.115476.029506-.121413c.175147-.811288-.079377-1.654891-.666841-2.233813l-.090604-.084816-.091271-.077208-.095711-.073177-7.426473-5.395358-.089556-.067957-.086541-.071608c-1.572779-1.359258-.763219-3.961509 1.26609-4.219865l.109873-.011578.110247-.006892.112427-.002323h9.180079l.116156-.002762.119771-.008675c.833634-.081144 1.563275-.588211 1.931891-1.333024l.050176-.107999.045097-.111112.038361-.109482 2.837908-8.729658.040419-.115428.044747-.111305c.812239-1.893561 3.504652-1.929289 4.387152-.107183zm-147.8498299-68.3835249-.1877245 5.9913332-13.84927 1.4067575-.2746759.029793-.2639171.0328592-.1262104.0175205-.2458892.0382667c-1.8662211.3138849-2.3396573.973306-2.4871363 2.9301798l-.0089811.126678-.0152764.258828-.1597771 3.300123.0014049.471905-.0016968.525732.0025722.116196.0052131.079859.0113265.103339c.1841977 1.56159.8589301 2.070566 2.9092941 1.925981l.1356789-.010352.2745416-.025275 6.1066689-.619418.1978573-.017377c4.9125629-.407878 7.287328 1.175509 7.6662137 4.90557.0371704.365936.0559775.691078.0634584.974712l.0028292.138354.0007773.255875-.0044277.227965-.2694889 7.256088-.0081801.184648c-.2569349 5.197516-2.6556885 7.494477-7.9297742 8.163729l-.3770736.044555-16.0096829 1.626968.1314267-5.985614 13.6240786-1.383884.2729441-.030017.2599246-.033522.1275907-.018565c2.0562928-.311655 2.8038727-1.049119 2.9744002-3.230736l.0099132-.138241.0149812-.276507.1244267-3.254726-.0104681-1.126735-.0032289-.102875-.0052334-.076677-.0110773-.100604-.0131187-.102002c-.1996906-1.440336-.9059791-1.950528-2.8103649-1.874981l-.1348168.006217-.2752155.017562-.2845989.023974-5.8875349.597444-.1973104.019014-.197492.016917c-4.6434958.372245-7.1230559-1.253004-7.4957701-4.922307-.0374304-.368495-.0541574-.829347-.0457815-1.339243l.0043262-.193425.0067312-.197516.0091877-.201098.3825484-7.4330907.0072575-.1720448.0097443-.1759854c.2748424-4.4162248 2.7129573-6.3679715 7.4979911-7.0505661l.4149729-.055313.384234-.0447311zm27.4827231 11.3830949c.0571853.562979.0868077 1.103477.0871729 1.604816l-.0022633.247328-.0071866.240338-.0121569.232885-.2316979 6.678345-18.5214978 5.805976-.1024401 2.91122-.01009.769447.0012582.167282.0021973.073805c.0018719.046946.004597.089328.0084094.12686.1293595 1.273521.5988885 1.510123 2.4666469 1.382149l.3988847-.030795.5611938-.051217 14.7544224-1.497428-.1666253 5.07913-17.2271407 1.749869-.1902657.018187-.1905017.015859c-4.0351123.310303-6.2190637-1.172676-6.5518544-4.44894-.0357408-.351861-.051724-.727948-.0479497-1.12826l.0046355-.243094.0093773-.248908.0141191-.254722.5895974-15.47402.0081029-.180662.0105463-.185018c.2789924-4.40382 2.4259041-6.2394149 6.7298868-6.7966792l.3614448-.0432626 10.534907-1.070854.1855325-.0176315c3.9922651-.3529104 6.1897901 1.1858597 6.5333349 4.5679953zm38.8981188-4.1599649.01674.1502591.011568.140133.013631.2975307.004979.2409511.001304.4253226-.002718.2882246-.008946.4828228-.787872 21.921454-6.192763.629038.76766-20.440555-.005264-.39982-.005068-.631249-.006364-.220245-.007953-.111271-.009776-.088539-.012027-.092407c-.158266-1.1212998-.690219-1.5639071-2.270899-1.5014542l-.258923.0140689-.26339.0210928-2.748855.2790172-.255793.0301107-.25074.0345814-.122073.0190997c-1.557977.2545687-2.077259.7721125-2.283171 2.2086275l-.016023.118501-.026968.236527-.021565.235432-.026732.379356-.845944 20.789779-6.136465.62332.81252-20.55887.008788-.683437-.00114-.225124c-.002023-.105589-.006563-.200684-.015141-.28513-.120659-1.187863-.899063-1.782369-2.330797-1.740054l-.131958.005602-.135556.009118-.135241.012243-2.758594.280208-.258603.028079-.245208.03062-.122511.017105-.234552.036901c-1.6695.284696-2.236485.893099-2.326208 2.730682l-.009204.252965-.002536.129386-.783927 20.840359-6.1927635.629038.9244402-22.730653.0096622-.173752c.2611238-4.2535264 2.2157971-6.1763576 6.8026361-6.7683361l.377863-.0451204 5.475656-.5569726.183451-.0168449c3.687041-.3021023 4.814581 1.8330928 5.082163 2.4873337l.065132.1732417.114295-.2845077.064558-.1482667.052223-.1119293.093193-.1849764.085281-.1554869.097446-.1643616c.570647-.9254657 1.724092-2.1811362 3.969482-2.5709543l.17788-.0287059.18601-.0255002.187689-.0212504 5.348296-.54326.19692-.0189271.197107-.0167301c4.240628-.3354192 6.529781 1.0886993 6.921658 4.3165603zm9.79886-6.0193352-1.092136 29.0053211-6.192763.629038 1.092136-29.0053212zm26.972222 2.4108265.019792.1528852.016952.1531739.010065.127633.007749.1565858.006069.1838559.02364 1.1197021-.84417 21.9271727-6.136465.62332.76766-20.4405552-.005083-.5736484-.000313-.4872983-.002531-.1076014-.005285-.0814416-.011246-.1011174-.01321-.1000547c-.17815-1.2435205-.779943-1.6540312-2.253678-1.5971558l-.12484.0058137-.248176.0168112-.126679.0108831-5.760119.5844394-.264212.0286488-.245498.0305063-.241345.0347311-.232051.0391246c-1.567778.2868283-2.093113.8794243-2.196856 2.5690435l-.012792.2708553-.006068.2528292-.783928 20.8403586-6.192763.629038.924442-22.7227892.009571-.1720229c.25757-4.2119737 2.113209-6.1726623 6.745134-6.7719732l.191919-.0238651.187469-.0215108 9.472572-.9629697.196968-.01886c4.30384-.3866836 6.663175 1.0901364 7.127306 4.4254523zm27.441599-2.5850705.017914.162505.010066.127633.007748.1565858.00607.1838559.023639 1.119702-.574335 15.2986604-.018448.338724-.011958.170749c-.298848 3.957123-1.996764 6.081684-6.482814 6.68701l-.196807.025362-.1896.022254-.187965.020058-10.358804 1.052209-.185043.017651-.185316.015321c-3.987564.303585-6.179248-1.237119-6.528839-4.678776-.015249-.150128-.024879-.307146-.031185-.472929l-.005284-.168773-.003579-.175032-.007475-.771043.59123-15.7070562.009741-.1790866c.253154-4.1480303 2.323143-6.2131608 6.750609-6.8066817l.193986-.0248798.191492-.0224255.189203-.0201735 10.18991-1.0350533.182563-.0173631.182808-.0149532c3.872798-.2902672 6.011294 1.2586808 6.420473 4.6959458zm28.569203-8.2548643-10.80306 27.6275084-.059705.143926c-.841847 1.988707-1.941056 2.878546-4.145488 3.102464-2.322286.235889-3.493002-.495042-4.171003-2.219602l-.087538-.235832-8.544342-25.5935122 6.361657-.6461935 6.508862 21.5215517 8.184876-23.0140872zm-139.993826 19.3426174-.1289085.010434-6.994315.709638-.2394735.026426-.2362038.03095c-1.7610265.252064-2.3838651.85921-2.4753299 2.857459l-.0052179.132304-.0059681.268321-.1943304 5.366338 12.6119988-4.068137.0918904-2.455118.0053898-.644393-.0030893-.286966c-.0033413-.136591-.0097939-.262333-.0212309-.374929-.1303736-1.283504-.8386081-1.687093-2.4052117-1.572327zm164.812066-16.6724676.020447.1597389.017913.162505.005363.0600923.008827.1423197.009694.2656627.02364 1.1197021-.574336 15.2986609-.018448.338723-.011957.170749c-.298849 3.957123-1.996764 6.081685-6.482815 6.687011l-.196807.025362-.377565.042311-10.358803 1.052209-.185043.017652-.185317.015321c-3.987563.303584-6.179248-1.23712-6.528838-4.678777-.01525-.150128-.024879-.307146-.031186-.472928l-.005284-.168773-.003578-.175032-.007475-.771044.59123-15.7070558.00974-.1790866c.253155-4.1480303 2.323143-6.2131608 6.75061-6.8066817l.193986-.0248798.380695-.042599 10.18991-1.0350533.182563-.0173631.182807-.0149531c3.812286-.2857318 5.944043 1.2107251 6.400027 4.5362068zm-62.276026 6.538151-6.601997.6712656-.126247.0148775c-1.945116.2408452-2.445495.861932-2.557877 2.6451971l-.006929.1206146-.010321.2409911-.009041.3813037-.465171 12.219295-.00596.352542-.009895.44537.000616.127915.005577.098971c.12719 1.252161.7511 1.623418 2.275718 1.525447l.125599-.008964.253062-.022865 6.53055-.663349.24847-.027409.123289-.015452c1.605597-.210404 2.113131-.65221 2.33063-1.972891l.034358-.233333.026507-.221773.023415-.236179.029505-.366076.487158-12.5628008.010691-.1020747.004083-.1083682-.000464-.0757912-.007259-.1602255-.009835-.1278487-.026697-.2758779-.012755-.1061431c-.16974-1.2178065-1.071493-1.7175991-2.65878-1.5563685zm86.39938-14.1796066-.188612 5.4226362-12.897573 1.3107699-.228429.0290117-.116813.0176197c-1.256495.2012762-1.620533.659024-1.720959 1.8365159l-.008662.1125127-.011999.2119418-.004398.1086508-.137639 2.0047357.00031.4338909-.002504.1806221-.008134.348364.000666.0619213.009753.0827821c.109335.8105009.577058 1.1031732 1.771833 1.0364423l.121915-.0078652.254748-.0223757 7.437919-.7546386.172872-.0149154c3.545582-.2871272 5.411333.7390281 5.716023 3.7386477.006291.0619276.011073.1278319.01473.1980245l.004689.1085442.005459.237321.00549.8749935-.278334 5.6592641-.010433.165637-.012522.16568c-.292483 3.562462-1.971085 5.40962-6.087429 5.967643l-.194743.025214-.192408.022672-.193034.020629-14.806333 1.503972.132314-5.416917 12.915772-1.312421.263876-.030934.245321-.033556.124648-.019301c1.504698-.243569 1.852629-.702793 1.936468-1.9273l.006394-.103825.008753-.194855.114764-2.2299267.01136-.1265192.009674-.1333127c.014173-.2277937.017221-.4834771-.011372-.7649664-.082918-.8163187-.729343-1.2016877-1.939273-1.156107l-.127176.0062526-.131195.009327-.135216.0124017-6.386653.6479991-.378557.032546-.371813.025628-.181227.0099841c-3.773177.18973-5.496018-.8791583-5.783374-3.708125-.005718-.0562978-.010349-.117446-.014154-.1834181l-.009194-.2123612-.005799-.2411455-.012657-.8945541.250628-5.3720568.008942-.1656002.011016-.1675266c.270721-3.764749 1.978563-5.3796974 6.121281-5.9142791l.187125-.023218.184953-.0211964zm-32.99149 8.754631-6.601998.6712656-.126247.0148775c-1.945115.2408452-2.445495.861932-2.557877 2.6451971l-.006929.1206146-.010321.2409911-.006793.2517319-.002248.1295718-.46517 12.2192946-.005961.352543-.009895.44537.000617.127914.005576.098971c.12719 1.252162.751101 1.623419 2.275718 1.525447l.125599-.008964.253063-.022865 6.53055-.663349.24847-.027408.123137-.015433c1.856012-.243192 2.244828-.795542 2.414412-2.657048l.030155-.373224.487157-12.5628004.010692-.1020747.004082-.1083682-.000463-.0757912-.007259-.1602255-.009836-.1278486-.026696-.275878-.012755-.1061431c-.16974-1.2178065-1.071494-1.7175991-2.65878-1.5563685zm-98.863787-2.8811392.006164.0877313.0007.0879449-.065935 2.850633-.004494.0849724c-.053543.6465095-.542129 1.1748278-1.18249 1.2786511l-.084363.0111096-3.355965.3408865-.08294.0060109c-.743168.0322384-1.391332-.5209439-1.467469-1.2704939l-.006164-.0877313-.0007-.0879449.065935-2.850633.004494-.0849725c.053543-.6465094.54213-1.1748277 1.18249-1.278651l.084363-.0111097 3.355965-.3408864.082941-.0060109c.743167-.0322384 1.391332.5209439 1.467468 1.2704939zm-34.749199-60.6997501-.363633 6.1841576-12.1590826.9355904c-.9580153.0737153-1.3077385.3236498-1.3999985 1.3144475l-.0092095.1131661-.1680625 3.0110701 12.9538801-.9967468-.403373 6.1872155-12.9538808.9967467-.6233839 10.0817367-8.5838167.6604887 1.2956576-21.0866643c.2829713-3.9990054 1.7851629-5.764377 6.3503849-6.164013zm25.451414-1.9583795-.363633 6.1841576-11.960383.9203013-.210878.0193218c-.865364.0944414-1.112547.3423914-1.190341 1.2987846l-.197456 2.842398 12.95388-.9967468-.403374 6.1872155-12.95388.9967467-.180294 2.8521106c-.030566.1222775-.018335.281237-.003046.4799365.060396.7849118.547033.8281732 1.537349.7602221l11.881202-.9132694-.366691 6.1444177-15.179315 1.1679846c-4.132948.318013-6.31562-1.0330963-6.551072-4.093068l-.006117-.1278945-.002479-.1649358.002457-.8260024.93507-15.3824431c.207642-3.9529266 1.823703-5.7266189 6.389958-6.1270494l.212851-.0175092zm12.775714-.9830376-1.656246 26.7908853-8.504337.6543731 1.656246-26.7908853zm28.427869 1.9407174.013304.1481977.019351.2595989.013904.237532c.004875.1120551.006095.2131484.001243.2992498l-.006966.0809547-.369761 5.5850015c-.25195 3.3543528-1.967475 5.2039718-5.143683 5.5864299l-.181345.0200819 6.107959 10.2833412-9.577314.7369342-3.319957-6.2604974-.25333-.4734482-.236985-.4548035c-1.029756-2.004754-1.565119-3.4449712-1.634364-4.3448875-.143585-1.8660471.818663-3.2815991 3.130018-3.5168876l.156092-.0139294.834537-.0642141c1.034657-.0796125 1.330262-.5855785 1.415817-1.6302889l.008668-.1183016.164355-2.6103934c.00836-.1531886.011658-.297353.00065-.4404166-.047113-.6122887-.323826-.8362218-1.302377-.7782464l-5.877011.4512162-1.271207 20.884907-8.504337.6543731 1.656246-26.7908854 18.557205-1.4278991c3.316475-.2551888 5.327565 1.0543867 5.599288 3.697281zm24.746876-1.9705718 6.442035 22.1060373-8.980835.6910376-1.180799-5.0659405-7.615086.5859489-1.881789 5.3015939-9.229154.7101446 9.417489-23.1507115c1.398597-3.4655311 3.343966-4.694549 6.861805-4.9652319l.359758-.0235038c3.1835-.1693332 4.90815.8114867 5.806576 3.8106254zm32.695591-2.1402631c.028831.3746904.028465.7516274.002754 1.1808624l-1.011164 15.326529c-.282771 3.9961653-2.005187 5.8951695-6.30442 6.2802094l-.206678.0171932-10.728446.825509c-4.172689.3210709-6.398158-1.0667206-6.63361-4.1266923l-.008001-.1621633-.003159-.1989932.001963-.797416.947301-15.2234836c.122231-2.0481392.68467-3.5704982 1.650635-4.5242791.894286-.9179395 2.523812-1.4825288 4.817039-1.6882632l.248239-.0206696 10.648966-.8193933c4.450868-.3424756 6.343129.8710789 6.578581 3.9310506zm-9.695468 2.4705293-.199774.0103558-4.119349.3164116c-1.001445.077057-1.291887.3431651-1.383304 1.3252383l-.01673.2215949-.779251 11.6927371c-.030566.1222775-.015277.3209769.000012.5196764.046887.609345.352051.7582568 1.111907.7130911l4.114111-.3157077c1.034657-.0796125 1.412695-.4804089 1.50688-1.4819749l.009316-.1137716.702829-11.6468815c.030566-.1222775.018373-.2812371-.00307-.5594164-.043198-.561409-.241291-.705765-.943577-.6813531zm-29.705961 3.4794335-3.254289 8.5652411 5.462996-.4203547zm6.985463-15.88797071 1.895355 2.81232371c-1.669041 1.6874576-3.280018 2.5709439-4.790134 2.687141-.778901.0599332-1.746875-.0745222-2.87161-.4058524l-.243402-.0740137c-1.228891-.3851441-2.121515-.5563115-2.677874-.5135021-.792811.0610035-1.974609.693102-2.604499 1.2069703l-.094732.0800541-.492156.3576708-2.017632-2.8428901.206888-.186764.242488-.2237206.127513-.1127233.143614-.1215826.150211-.1212502c.318201-.250809.74754-.5522381 1.368446-.9181159l.334725-.1928505c.880381-.50746868 1.65989-.7673245 2.335468-.81930741.815993-.0627872 1.786439.07147798 2.911338.40279553l.619033.18862248c1.029101.3048425 1.760538.4405752 2.222775.405008.865912-.0666283 2.014403-.65729186 2.678722-1.13516779l.106105-.07849247z" fill="#fff" fill-rule="nonzero"/></g></g></svg>